<?xml version="1.0" standalone="no"?>
<!DOCTYPE svg PUBLIC "-//W3C//DTD SVG 20010904//EN"
 "http://www.w3.org/TR/2001/REC-SVG-20010904/DTD/svg10.dtd">
<svg version="1.0" xmlns="http://www.w3.org/2000/svg"
 width="189.000000pt" height="176.000000pt" viewBox="0 0 189.000000 176.000000"
 preserveAspectRatio="xMidYMid meet">
<metadata>
Created by potrace 1.16, written by Peter Selinger 2001-2019
</metadata>
<g transform="translate(0.000000,176.000000) scale(0.100000,-0.100000)"
fill="#000000" stroke="none">
<path d="M1363 988 c-18 -6 -33 -14 -33 -17 0 -12 39 -116 40 -106 0 6 4 4 9
-3 17 -28 165 15 231 68 l25 20 -52 0 c-28 0 -63 -4 -78 -10 -14 -5 -24 -6
-21 -1 8 12 -41 55 -67 57 -12 1 -37 -3 -54 -8z"/>
<path d="M392 962 c-13 -4 -52 -73 -52 -92 0 -5 -9 -19 -20 -30 l-20 -20 0 24
c0 13 -6 29 -14 35 -11 10 -14 7 -12 -13 0 -13 4 -22 9 -19 4 2 7 -3 7 -12 0
-9 -4 -13 -10 -10 -6 3 -7 -1 -4 -9 3 -9 11 -13 16 -10 6 4 8 -2 3 -15 -6 -19
-3 -21 33 -21 41 0 54 13 67 75 4 16 21 42 38 56 26 22 30 29 19 42 -14 17
-41 26 -60 19z"/>
<path d="M864 828 c-3 -4 0 -8 7 -8 7 0 2 -10 -11 -22 -14 -13 -28 -22 -32
-21 -4 2 -17 -11 -30 -28 -13 -16 -37 -45 -54 -63 -17 -18 -39 -45 -49 -59
-18 -28 -38 -36 -34 -14 4 18 -12 139 -21 162 -6 16 -9 17 -13 5 -3 -8 -13
-36 -22 -62 -10 -26 -15 -54 -11 -63 3 -9 2 -13 -4 -10 -11 7 -80 -52 -80 -69
0 -19 63 -74 81 -71 12 2 15 -3 12 -16 -3 -10 -11 -19 -17 -19 -7 0 -25 -13
-41 -30 -33 -35 -32 -35 72 -15 114 22 127 29 154 88 17 37 55 82 129 154 58
57 108 103 113 103 17 0 5 21 -20 33 -36 18 -94 32 -73 17 12 -8 11 -10 -7
-10 -15 0 -21 5 -17 13 5 15 -23 19 -32 5z"/>
<path d="M1426 684 c-14 -26 -26 -52 -26 -58 0 -6 -9 -17 -20 -23 -16 -11 -18
-10 -14 1 5 13 -1 12 -42 0 -26 -8 -48 -15 -48 -17 -19 -45 -48 -98 -53 -93
-3 3 -1 11 5 19 6 7 16 25 21 40 l11 28 -38 -7 c-52 -9 -55 -12 -34 -42 10
-15 29 -49 42 -75 13 -26 29 -46 35 -43 7 2 12 -2 12 -10 0 -19 -6 -18 -105
12 -79 24 -87 25 -98 10 -12 -17 -29 -124 -21 -132 9 -9 64 -12 77 -4 8 5 11
17 7 31 l-6 24 19 -23 c15 -18 23 -21 37 -14 14 8 32 -3 93 -57 158 -140 206
-178 186 -146 -35 55 -168 230 -184 242 -17 14 -20 13 73 39 55 15 118 56 122
78 3 19 26 23 52 10 38 -20 63 -17 151 17 98 39 123 60 114 97 -4 15 -12 30
-18 34 -6 4 -7 10 -3 14 7 8 -20 44 -33 44 -4 0 -13 -14 -20 -30 -7 -17 -15
-29 -17 -26 -2 2 2 17 11 34 18 35 13 42 -31 42 -29 0 -33 -3 -34 -27 -2 -24
-2 -25 -6 -5 -6 28 -21 28 -85 -3 -60 -29 -69 -31 -62 -11 6 15 -24 76 -37 76
-4 0 -19 -21 -33 -46z"/>
<path d="M439 572 c0 -11 -2 -12 -6 -4 -7 17 -16 15 -45 -10 -32 -28 -46 -68
-25 -68 9 0 17 -4 19 -8 4 -11 94 -62 108 -62 13 0 12 115 -1 141 -12 24 -49
31 -50 11z"/>
<path d="M995 580 c3 -4 -8 -13 -24 -20 -16 -6 -33 -21 -39 -33 -10 -22 -10
-22 -17 -2 -23 68 -37 67 -56 -4 -14 -53 -14 -58 0 -53 12 4 11 0 -3 -17 l-20
-22 48 -48 c29 -29 54 -47 63 -44 24 9 95 87 105 115 6 16 14 26 18 23 5 -3
23 15 40 40 l31 45 -28 11 c-33 13 -125 20 -118 9z"/>
</g>
</svg>
